<?xml version="1.0" standalone="no"?>
<!DOCTYPE svg PUBLIC "-//W3C//DTD SVG 20010904//EN"
 "http://www.w3.org/TR/2001/REC-SVG-20010904/DTD/svg10.dtd">
<svg version="1.0" xmlns="http://www.w3.org/2000/svg"
 width="966.000000pt" height="966.000000pt" viewBox="0 0 966.000000 966.000000"
 preserveAspectRatio="xMidYMid meet">
<metadata>
Created by potrace 1.14, written by Peter Selinger 2001-2017
</metadata>
<g transform="translate(0.000000,966.000000) scale(0.100000,-0.100000)"
fill="#000000" stroke="none">
<path d="M7568 8625 c-196 -86 -331 -227 -394 -412 -23 -65 -27 -96 -28 -188
-1 -167 35 -279 129 -397 132 -168 332 -257 549 -245 271 14 485 183 573 452
21 66 26 99 26 190 0 134 -29 238 -94 331 -79 114 -147 172 -299 255 l-91 49
-147 -1 c-144 0 -148 -1 -224 -34z"/>
<path d="M5070 8010 c-220 -25 -432 -143 -573 -320 -65 -81 -135 -218 -162
-315 -23 -82 -31 -298 -15 -389 30 -171 113 -330 240 -457 84 -84 135 -122
237 -173 203 -102 469 -114 692 -30 193 72 382 246 479 439 126 253 112 568
-36 820 -59 100 -202 244 -298 301 -174 103 -368 145 -564 124z m226 -414
c317 -84 454 -444 273 -715 -108 -162 -318 -244 -504 -196 -298 78 -441 406
-299 686 90 179 326 279 530 225z"/>
<path d="M5065 7381 c-52 -24 -121 -99 -134 -147 -20 -73 -14 -156 17 -215 50
-96 143 -146 253 -136 71 6 127 35 176 91 86 97 86 244 1 341 -55 63 -108 85
-199 85 -50 0 -87 -6 -114 -19z"/>
<path d="M8350 7270 c-364 -100 -745 -220 -806 -255 -75 -44 -142 -132 -174
-228 -22 -69 -24 -69 242 -6 133 32 244 56 246 55 4 -4 -238 -164 -357 -236
-57 -34 -169 -96 -248 -137 -172 -90 -218 -99 -323 -63 -36 12 -199 89 -363
171 -163 82 -302 149 -307 149 -15 0 -371 -479 -365 -491 4 -5 149 -81 323
-168 174 -87 380 -195 457 -240 171 -99 262 -131 378 -131 136 0 239 37 393
141 111 75 234 147 455 269 112 62 220 122 239 133 l35 22 -34 -43 c-18 -24
-126 -136 -239 -250 -146 -147 -211 -220 -225 -252 -34 -75 -26 -130 51 -390
241 -816 239 -808 208 -927 -16 -65 -90 -261 -296 -788 -66 -170 -140 -364
-163 -430 l-42 -120 1 -150 c0 -125 12 -247 72 -720 39 -314 78 -638 87 -722
9 -83 22 -172 29 -197 31 -101 107 -190 204 -238 69 -34 206 -38 284 -8 79 29
159 104 199 186 48 98 49 165 5 469 -56 390 -138 1150 -132 1218 4 38 35 136
92 285 133 352 402 1023 424 1059 10 17 53 59 95 92 76 60 77 60 101 43 l24
-17 -1 -1522 c0 -1115 3 -1534 12 -1565 16 -62 35 -95 88 -151 57 -61 102 -91
171 -111 145 -43 312 15 405 142 70 95 65 -21 65 1596 0 1450 -5 1711 -35
1886 -35 206 -673 2311 -737 2432 -39 73 -131 162 -205 195 -80 37 -224 42
-333 13z"/>
<path d="M4877 6023 c-4 -3 -7 -349 -7 -769 l0 -762 -102 -6 c-244 -13 -1257
-46 -1444 -46 -151 0 -163 1 -195 23 -47 31 -76 96 -219 476 -66 179 -135 351
-152 383 -41 76 -140 170 -204 192 -99 34 -212 14 -306 -54 -65 -46 -125 -118
-523 -620 -159 -201 -431 -543 -603 -760 -351 -442 -374 -477 -374 -590 0
-173 152 -340 311 -342 123 -2 195 33 312 151 71 71 534 642 874 1078 44 56
82 102 85 102 3 1 28 -61 57 -137 244 -647 328 -864 356 -916 44 -84 156 -194
237 -234 135 -66 104 -65 1230 -57 558 3 1081 10 1161 14 131 7 153 11 202 35
66 32 111 80 145 155 23 51 26 70 33 280 11 288 -2 547 -31 623 -30 81 -70
138 -139 198 -105 91 -95 13 -101 850 l-5 735 -296 3 c-162 1 -298 -1 -302 -5z"/>
<path d="M6535 4424 c-111 -27 -202 -80 -296 -174 -123 -123 -178 -239 -194
-410 -20 -212 104 -452 299 -579 191 -125 456 -135 655 -25 99 56 209 171 260
275 95 192 92 401 -7 594 -46 89 -171 216 -259 263 -128 67 -315 90 -458 56z"/>
<path d="M210 2791 c-113 -35 -199 -147 -200 -260 0 -88 18 -129 85 -197 44
-44 72 -63 105 -72 35 -10 790 -12 3405 -10 l3360 3 46 27 c54 32 105 87 127
137 9 21 16 66 16 106 0 59 -4 78 -29 124 -36 65 -98 118 -161 137 -40 12
-534 14 -3388 13 -1838 0 -3352 -4 -3366 -8z"/>
</g>
</svg>
